<mxfile host="app.diagrams.net" agent="Mozilla/5.0 (Windows NT 10.0; Win64; x64) AppleWebKit/537.36 (KHTML, like Gecko) Chrome/130.0.0.0 Safari/537.36 Edg/130.0.0.0" version="24.8.4">
  <diagram name="第 1 页" id="6tLvMGx8VoOJJPcJI_q9">
    <mxGraphModel dx="1579" dy="829" grid="1" gridSize="10" guides="1" tooltips="1" connect="1" arrows="1" fold="1" page="1" pageScale="1" pageWidth="827" pageHeight="1169" math="0" shadow="0">
      <root>
        <mxCell id="0" />
        <mxCell id="1" parent="0" />
        <mxCell id="-LrwF1MawvNRdLnmg8Yx-139" style="edgeStyle=orthogonalEdgeStyle;rounded=0;orthogonalLoop=1;jettySize=auto;html=1;exitX=0;exitY=0.5;exitDx=0;exitDy=0;entryX=0;entryY=0.25;entryDx=0;entryDy=0;" edge="1" parent="1" source="-LrwF1MawvNRdLnmg8Yx-69" target="-LrwF1MawvNRdLnmg8Yx-135">
          <mxGeometry relative="1" as="geometry" />
        </mxCell>
        <mxCell id="-LrwF1MawvNRdLnmg8Yx-80" value="" style="rounded=0;whiteSpace=wrap;html=1;fillColor=none;strokeColor=#000000;fontColor=#000000;dashed=1;dashPattern=12 12;fontSize=25;" vertex="1" parent="1">
          <mxGeometry x="920" y="390" width="255" height="280" as="geometry" />
        </mxCell>
        <mxCell id="-LrwF1MawvNRdLnmg8Yx-136" style="edgeStyle=orthogonalEdgeStyle;rounded=0;orthogonalLoop=1;jettySize=auto;html=1;exitX=0.25;exitY=0;exitDx=0;exitDy=0;entryX=0.25;entryY=1;entryDx=0;entryDy=0;curved=1;dashed=1;" edge="1" parent="1" source="-LrwF1MawvNRdLnmg8Yx-91" target="-LrwF1MawvNRdLnmg8Yx-134">
          <mxGeometry relative="1" as="geometry" />
        </mxCell>
        <mxCell id="-LrwF1MawvNRdLnmg8Yx-91" value="" style="rounded=0;whiteSpace=wrap;html=1;fillColor=none;strokeColor=#000000;fontColor=#000000;dashed=1;dashPattern=12 12;fontSize=25;" vertex="1" parent="1">
          <mxGeometry x="345" y="710" width="830" height="230" as="geometry" />
        </mxCell>
        <mxCell id="-LrwF1MawvNRdLnmg8Yx-95" style="edgeStyle=orthogonalEdgeStyle;rounded=0;orthogonalLoop=1;jettySize=auto;html=1;exitX=1;exitY=0.5;exitDx=0;exitDy=0;entryX=0.5;entryY=1;entryDx=0;entryDy=0;" edge="1" parent="1" source="-LrwF1MawvNRdLnmg8Yx-69" target="-LrwF1MawvNRdLnmg8Yx-91">
          <mxGeometry relative="1" as="geometry">
            <Array as="points">
              <mxPoint x="1500" y="275" />
              <mxPoint x="1500" y="980" />
              <mxPoint x="760" y="980" />
            </Array>
          </mxGeometry>
        </mxCell>
        <mxCell id="-LrwF1MawvNRdLnmg8Yx-69" value="" style="rounded=0;whiteSpace=wrap;html=1;fillColor=none;strokeColor=#000000;fontColor=#000000;dashed=1;dashPattern=12 12;fontSize=25;" vertex="1" parent="1">
          <mxGeometry x="390" y="240" width="740" height="70" as="geometry" />
        </mxCell>
        <mxCell id="-LrwF1MawvNRdLnmg8Yx-6" value="" style="rounded=0;whiteSpace=wrap;html=1;fillColor=none;strokeColor=#000000;fontColor=#000000;dashed=1;dashPattern=12 12;fontSize=25;" vertex="1" parent="1">
          <mxGeometry x="390" y="80" width="740" height="80" as="geometry" />
        </mxCell>
        <mxCell id="-LrwF1MawvNRdLnmg8Yx-13" value="" style="endArrow=classic;html=1;rounded=0;exitX=0.5;exitY=1;exitDx=0;exitDy=0;edgeStyle=orthogonalEdgeStyle;fontSize=25;" edge="1" parent="1" source="-LrwF1MawvNRdLnmg8Yx-6">
          <mxGeometry relative="1" as="geometry">
            <mxPoint x="330" y="390" as="sourcePoint" />
            <mxPoint x="760" y="240" as="targetPoint" />
          </mxGeometry>
        </mxCell>
        <mxCell id="-LrwF1MawvNRdLnmg8Yx-14" value="&lt;font style=&quot;font-size: 22px;&quot; face=&quot;宋体&quot;&gt;提供原始数据&lt;/font&gt;" style="edgeLabel;html=1;align=center;verticalAlign=middle;resizable=0;points=[];fontSize=22;" vertex="1" connectable="0" parent="-LrwF1MawvNRdLnmg8Yx-13">
          <mxGeometry x="0.004" y="-1" relative="1" as="geometry">
            <mxPoint y="1" as="offset" />
          </mxGeometry>
        </mxCell>
        <mxCell id="-LrwF1MawvNRdLnmg8Yx-82" value="&lt;font style=&quot;font-size: 22px;&quot; face=&quot;宋体&quot;&gt;提供处理后的数据&lt;/font&gt;" style="edgeLabel;html=1;align=center;verticalAlign=middle;resizable=0;points=[];fontSize=22;" vertex="1" connectable="0" parent="-LrwF1MawvNRdLnmg8Yx-13">
          <mxGeometry x="0.004" y="-1" relative="1" as="geometry">
            <mxPoint x="-430" y="151" as="offset" />
          </mxGeometry>
        </mxCell>
        <mxCell id="-LrwF1MawvNRdLnmg8Yx-96" value="&lt;font style=&quot;font-size: 22px;&quot; face=&quot;宋体&quot;&gt;提供处理后的数据&lt;/font&gt;" style="edgeLabel;html=1;align=center;verticalAlign=middle;resizable=0;points=[];fontSize=22;" vertex="1" connectable="0" parent="-LrwF1MawvNRdLnmg8Yx-13">
          <mxGeometry x="0.004" y="-1" relative="1" as="geometry">
            <mxPoint x="540" y="71" as="offset" />
          </mxGeometry>
        </mxCell>
        <mxCell id="-LrwF1MawvNRdLnmg8Yx-19" value="&lt;font face=&quot;宋体&quot;&gt;数据标准化模块&lt;/font&gt;" style="rounded=0;whiteSpace=wrap;html=1;align=center;fontSize=25;" vertex="1" parent="1">
          <mxGeometry x="665" y="250" width="190" height="50" as="geometry" />
        </mxCell>
        <mxCell id="-LrwF1MawvNRdLnmg8Yx-23" value="&lt;span style=&quot;line-height: 18px; font-family: 宋体; font-size: 25px;&quot;&gt;&lt;font style=&quot;font-size: 25px;&quot;&gt;数据质控模块&lt;/font&gt;&lt;/span&gt;" style="rounded=0;whiteSpace=wrap;html=1;align=center;fontSize=25;" vertex="1" parent="1">
          <mxGeometry x="420" y="250" width="190" height="50" as="geometry" />
        </mxCell>
        <mxCell id="-LrwF1MawvNRdLnmg8Yx-63" value="&lt;p style=&quot;margin-top: 0pt; margin-bottom: 0pt; margin-left: 0in; direction: ltr; unicode-bidi: embed; word-break: normal; font-size: 25px;&quot;&gt;&lt;font face=&quot;宋体&quot; style=&quot;font-size: 25px;&quot;&gt;&lt;span style=&quot;font-size: 25px;&quot;&gt;卫星遥感数据采集模块&lt;/span&gt;&lt;/font&gt;&lt;/p&gt;" style="rounded=0;whiteSpace=wrap;html=1;fontSize=25;" vertex="1" parent="1">
          <mxGeometry x="410" y="90" width="160" height="60" as="geometry" />
        </mxCell>
        <mxCell id="-LrwF1MawvNRdLnmg8Yx-64" value="&lt;p style=&quot;margin-top: 0pt; margin-bottom: 0pt; margin-left: 0in; direction: ltr; unicode-bidi: embed; word-break: normal; font-size: 25px;&quot;&gt;&lt;font face=&quot;宋体&quot; style=&quot;font-size: 25px;&quot;&gt;&lt;span style=&quot;font-size: 25px;&quot;&gt;现场观测数据采集模块&lt;/span&gt;&lt;/font&gt;&lt;/p&gt;" style="rounded=0;whiteSpace=wrap;html=1;fontSize=25;" vertex="1" parent="1">
          <mxGeometry x="590" y="90" width="160" height="60" as="geometry" />
        </mxCell>
        <mxCell id="-LrwF1MawvNRdLnmg8Yx-65" value="&lt;p style=&quot;margin-top: 0pt; margin-bottom: 0pt; margin-left: 0in; direction: ltr; unicode-bidi: embed; word-break: normal; font-size: 25px;&quot;&gt;&lt;font face=&quot;宋体&quot; style=&quot;font-size: 25px;&quot;&gt;&lt;span style=&quot;font-size: 25px;&quot;&gt;再分析数据采集模块&lt;/span&gt;&lt;/font&gt;&lt;/p&gt;" style="rounded=0;whiteSpace=wrap;html=1;fontSize=25;" vertex="1" parent="1">
          <mxGeometry x="770" y="90" width="160" height="60" as="geometry" />
        </mxCell>
        <mxCell id="-LrwF1MawvNRdLnmg8Yx-66" value="&lt;p style=&quot;margin-top: 0pt; margin-bottom: 0pt; margin-left: 0in; direction: ltr; unicode-bidi: embed; word-break: normal; font-size: 25px;&quot;&gt;&lt;font face=&quot;宋体&quot; style=&quot;font-size: 25px;&quot;&gt;&lt;span style=&quot;font-size: 25px;&quot;&gt;模型驱动场采集模块&lt;/span&gt;&lt;/font&gt;&lt;/p&gt;" style="rounded=0;whiteSpace=wrap;html=1;fontSize=25;" vertex="1" parent="1">
          <mxGeometry x="953.5" y="90" width="160" height="60" as="geometry" />
        </mxCell>
        <mxCell id="-LrwF1MawvNRdLnmg8Yx-67" value="&lt;font face=&quot;宋体&quot;&gt;数据融合模块&lt;/font&gt;" style="rounded=0;whiteSpace=wrap;html=1;align=center;fontSize=25;" vertex="1" parent="1">
          <mxGeometry x="901" y="250" width="198" height="50" as="geometry" />
        </mxCell>
        <mxCell id="-LrwF1MawvNRdLnmg8Yx-70" value="&lt;span style=&quot;line-height: 18px; font-family: 宋体;&quot;&gt;&lt;font style=&quot;font-size: 24px;&quot;&gt;集合生成模块&lt;/font&gt;&lt;/span&gt;" style="rounded=0;whiteSpace=wrap;html=1;align=center;" vertex="1" parent="1">
          <mxGeometry x="357.25" y="547" width="132.5" height="96" as="geometry" />
        </mxCell>
        <mxCell id="-LrwF1MawvNRdLnmg8Yx-71" value="&lt;span style=&quot;line-height: 18px; font-family: 宋体;&quot;&gt;&lt;font style=&quot;font-size: 24px;&quot;&gt;观测算子构建模块&lt;/font&gt;&lt;/span&gt;" style="rounded=0;whiteSpace=wrap;html=1;textDirection=vertical-lr;align=center;" vertex="1" parent="1">
          <mxGeometry x="522.5" y="402.5" width="60" height="255" as="geometry" />
        </mxCell>
        <mxCell id="-LrwF1MawvNRdLnmg8Yx-72" value="&lt;span style=&quot;line-height: 18px; font-family: 宋体;&quot;&gt;&lt;font style=&quot;font-size: 24px;&quot;&gt;局地化模块&lt;/font&gt;&lt;/span&gt;" style="rounded=0;whiteSpace=wrap;html=1;textDirection=vertical-lr;align=center;" vertex="1" parent="1">
          <mxGeometry x="602.5" y="401.88" width="60" height="255" as="geometry" />
        </mxCell>
        <mxCell id="-LrwF1MawvNRdLnmg8Yx-73" value="&lt;span style=&quot;line-height: 18px; font-family: 宋体;&quot;&gt;&lt;font style=&quot;font-size: 24px;&quot;&gt;模型初始化模块&lt;/font&gt;&lt;/span&gt;" style="rounded=0;whiteSpace=wrap;html=1;textDirection=vertical-lr;align=center;" vertex="1" parent="1">
          <mxGeometry x="682.5" y="401.25" width="60" height="255" as="geometry" />
        </mxCell>
        <mxCell id="-LrwF1MawvNRdLnmg8Yx-74" value="&lt;span style=&quot;line-height: 18px; font-family: 宋体;&quot;&gt;&lt;font style=&quot;font-size: 24px;&quot;&gt;背景场生成模块&lt;/font&gt;&lt;/span&gt;" style="rounded=0;whiteSpace=wrap;html=1;align=center;" vertex="1" parent="1">
          <mxGeometry x="358.5" y="420" width="130" height="110" as="geometry" />
        </mxCell>
        <mxCell id="-LrwF1MawvNRdLnmg8Yx-75" value="&lt;span style=&quot;line-height: 18px; font-family: 宋体;&quot;&gt;&lt;font style=&quot;font-size: 24px;&quot;&gt;同化参数优选模块&lt;/font&gt;&lt;/span&gt;" style="rounded=0;whiteSpace=wrap;html=1;textDirection=vertical-lr;align=center;" vertex="1" parent="1">
          <mxGeometry x="767.5" y="400" width="60" height="255" as="geometry" />
        </mxCell>
        <mxCell id="-LrwF1MawvNRdLnmg8Yx-76" value="&lt;span style=&quot;line-height: 18px; font-family: 宋体;&quot;&gt;&lt;font style=&quot;font-size: 24px;&quot;&gt;集合卡曼滤波计算模块&lt;/font&gt;&lt;/span&gt;" style="rounded=0;whiteSpace=wrap;html=1;textDirection=vertical-lr;align=center;" vertex="1" parent="1">
          <mxGeometry x="849.5" y="400" width="53" height="255" as="geometry" />
        </mxCell>
        <mxCell id="-LrwF1MawvNRdLnmg8Yx-77" value="&lt;span style=&quot;line-height: 18px; font-family: 宋体;&quot;&gt;&lt;font style=&quot;font-size: 24px;&quot;&gt;同化后处理模块&lt;/font&gt;&lt;/span&gt;" style="rounded=0;whiteSpace=wrap;html=1;textDirection=vertical-lr;align=center;" vertex="1" parent="1">
          <mxGeometry x="932.5" y="401.25" width="60" height="255" as="geometry" />
        </mxCell>
        <mxCell id="-LrwF1MawvNRdLnmg8Yx-78" value="&lt;span style=&quot;line-height: 18px; font-family: 宋体;&quot;&gt;&lt;font style=&quot;font-size: 24px;&quot;&gt;同化结果检验模块&lt;/font&gt;&lt;/span&gt;" style="rounded=0;whiteSpace=wrap;html=1;textDirection=vertical-lr;align=center;" vertex="1" parent="1">
          <mxGeometry x="1020" y="403.75" width="60" height="255" as="geometry" />
        </mxCell>
        <mxCell id="-LrwF1MawvNRdLnmg8Yx-79" value="&lt;span style=&quot;line-height: 18px; font-family: 宋体;&quot;&gt;&lt;font style=&quot;font-size: 24px;&quot;&gt;同化算法迭代模块&lt;/font&gt;&lt;/span&gt;" style="rounded=0;whiteSpace=wrap;html=1;textDirection=vertical-lr;align=center;" vertex="1" parent="1">
          <mxGeometry x="1107.5" y="403.75" width="60" height="255" as="geometry" />
        </mxCell>
        <mxCell id="-LrwF1MawvNRdLnmg8Yx-83" value="&lt;p style=&quot;margin-top: 0pt; margin-bottom: 0pt; margin-left: 0in; direction: ltr; unicode-bidi: embed; word-break: normal;&quot;&gt;&lt;font face=&quot;宋体&quot;&gt;&lt;span style=&quot;font-size: 24px;&quot;&gt;训练数据集生成模块&lt;/span&gt;&lt;/font&gt;&lt;/p&gt;" style="rounded=0;whiteSpace=wrap;html=1;" vertex="1" parent="1">
          <mxGeometry x="369" y="730" width="240" height="50" as="geometry" />
        </mxCell>
        <mxCell id="-LrwF1MawvNRdLnmg8Yx-84" value="&lt;p style=&quot;margin-top: 0pt; margin-bottom: 0pt; margin-left: 0in; direction: ltr; unicode-bidi: embed; word-break: normal;&quot;&gt;&lt;font face=&quot;宋体&quot;&gt;&lt;span style=&quot;font-size: 24px;&quot;&gt;交叉验证模块&lt;/span&gt;&lt;/font&gt;&lt;/p&gt;" style="rounded=0;whiteSpace=wrap;html=1;" vertex="1" parent="1">
          <mxGeometry x="488.5" y="870" width="240" height="50" as="geometry" />
        </mxCell>
        <mxCell id="-LrwF1MawvNRdLnmg8Yx-85" value="&lt;p style=&quot;margin-top: 0pt; margin-bottom: 0pt; margin-left: 0in; direction: ltr; unicode-bidi: embed; word-break: normal;&quot;&gt;&lt;font face=&quot;宋体&quot;&gt;&lt;span style=&quot;font-size: 24px;&quot;&gt;集成学习模块&lt;/span&gt;&lt;/font&gt;&lt;/p&gt;" style="rounded=0;whiteSpace=wrap;html=1;" vertex="1" parent="1">
          <mxGeometry x="369" y="800" width="240" height="50" as="geometry" />
        </mxCell>
        <mxCell id="-LrwF1MawvNRdLnmg8Yx-86" value="&lt;p style=&quot;margin-top: 0pt; margin-bottom: 0pt; margin-left: 0in; direction: ltr; unicode-bidi: embed; word-break: normal;&quot;&gt;&lt;font face=&quot;宋体&quot;&gt;&lt;span style=&quot;font-size: 24px;&quot;&gt;超参数优化模块&lt;/span&gt;&lt;/font&gt;&lt;/p&gt;" style="rounded=0;whiteSpace=wrap;html=1;" vertex="1" parent="1">
          <mxGeometry x="644" y="730" width="240" height="50" as="geometry" />
        </mxCell>
        <mxCell id="-LrwF1MawvNRdLnmg8Yx-87" value="&lt;p style=&quot;margin-top: 0pt; margin-bottom: 0pt; margin-left: 0in; direction: ltr; unicode-bidi: embed; word-break: normal;&quot;&gt;&lt;font face=&quot;宋体&quot;&gt;&lt;span style=&quot;font-size: 24px;&quot;&gt;智能模型优选模块&lt;/span&gt;&lt;/font&gt;&lt;/p&gt;" style="rounded=0;whiteSpace=wrap;html=1;" vertex="1" parent="1">
          <mxGeometry x="916" y="730" width="240" height="50" as="geometry" />
        </mxCell>
        <mxCell id="-LrwF1MawvNRdLnmg8Yx-88" value="&lt;p style=&quot;margin-top: 0pt; margin-bottom: 0pt; margin-left: 0in; direction: ltr; unicode-bidi: embed; word-break: normal;&quot;&gt;&lt;font face=&quot;宋体&quot;&gt;&lt;span style=&quot;font-size: 24px;&quot;&gt;数据-初始场映射模块&lt;/span&gt;&lt;/font&gt;&lt;/p&gt;" style="rounded=0;whiteSpace=wrap;html=1;" vertex="1" parent="1">
          <mxGeometry x="644" y="800" width="240" height="50" as="geometry" />
        </mxCell>
        <mxCell id="-LrwF1MawvNRdLnmg8Yx-89" value="&lt;p style=&quot;margin-top: 0pt; margin-bottom: 0pt; margin-left: 0in; direction: ltr; unicode-bidi: embed; word-break: normal;&quot;&gt;&lt;font face=&quot;宋体&quot;&gt;&lt;span style=&quot;font-size: 24px;&quot;&gt;初始场智能生成模块&lt;/span&gt;&lt;/font&gt;&lt;/p&gt;" style="rounded=0;whiteSpace=wrap;html=1;" vertex="1" parent="1">
          <mxGeometry x="916" y="800" width="240" height="50" as="geometry" />
        </mxCell>
        <mxCell id="-LrwF1MawvNRdLnmg8Yx-90" value="&lt;p style=&quot;margin-top: 0pt; margin-bottom: 0pt; margin-left: 0in; direction: ltr; unicode-bidi: embed; word-break: normal;&quot;&gt;&lt;font face=&quot;宋体&quot;&gt;&lt;span style=&quot;font-size: 24px;&quot;&gt;反馈与迭代模块&lt;/span&gt;&lt;/font&gt;&lt;/p&gt;" style="rounded=0;whiteSpace=wrap;html=1;" vertex="1" parent="1">
          <mxGeometry x="778.5" y="870" width="240" height="50" as="geometry" />
        </mxCell>
        <mxCell id="-LrwF1MawvNRdLnmg8Yx-114" value="" style="rounded=0;whiteSpace=wrap;html=1;fillColor=none;strokeColor=#000000;dashed=1;dashPattern=12 12;" vertex="1" parent="1">
          <mxGeometry x="40" y="410" width="220" height="530" as="geometry" />
        </mxCell>
        <mxCell id="-LrwF1MawvNRdLnmg8Yx-117" value="&lt;span style=&quot;line-height: 18px; font-family: 宋体;&quot;&gt;&lt;font style=&quot;font-size: 24px;&quot;&gt;显存管理模块&lt;/font&gt;&lt;/span&gt;" style="rounded=0;whiteSpace=wrap;html=1;align=center;" vertex="1" parent="1">
          <mxGeometry x="58.75" y="750" width="180" height="50" as="geometry" />
        </mxCell>
        <mxCell id="-LrwF1MawvNRdLnmg8Yx-118" value="&lt;span style=&quot;line-height: 18px; font-family: 宋体;&quot;&gt;&lt;font style=&quot;font-size: 24px;&quot;&gt;性能监控模块&lt;/font&gt;&lt;/span&gt;" style="rounded=0;whiteSpace=wrap;html=1;align=center;" vertex="1" parent="1">
          <mxGeometry x="62.5" y="850" width="180" height="50" as="geometry" />
        </mxCell>
        <mxCell id="-LrwF1MawvNRdLnmg8Yx-119" value="&lt;span style=&quot;line-height: 18px; font-family: 宋体;&quot;&gt;&lt;font style=&quot;font-size: 24px;&quot;&gt;资源优化模块&lt;/font&gt;&lt;/span&gt;" style="rounded=0;whiteSpace=wrap;html=1;align=center;" vertex="1" parent="1">
          <mxGeometry x="58.75" y="650" width="180" height="50" as="geometry" />
        </mxCell>
        <mxCell id="-LrwF1MawvNRdLnmg8Yx-120" value="&lt;span style=&quot;line-height: 18px; font-family: 宋体;&quot;&gt;&lt;font style=&quot;font-size: 24px;&quot;&gt;任务调度模块&lt;/font&gt;&lt;/span&gt;" style="rounded=0;whiteSpace=wrap;html=1;align=center;" vertex="1" parent="1">
          <mxGeometry x="60" y="550" width="182.5" height="51.9" as="geometry" />
        </mxCell>
        <mxCell id="-LrwF1MawvNRdLnmg8Yx-121" value="&lt;span style=&quot;line-height: 18px; font-family: 宋体;&quot;&gt;&lt;font style=&quot;font-size: 24px;&quot;&gt;数据传输模块&lt;/font&gt;&lt;/span&gt;" style="rounded=0;whiteSpace=wrap;html=1;align=center;" vertex="1" parent="1">
          <mxGeometry x="57.5" y="447" width="182.5" height="50" as="geometry" />
        </mxCell>
        <mxCell id="-LrwF1MawvNRdLnmg8Yx-122" value="" style="rounded=0;whiteSpace=wrap;html=1;fillColor=none;strokeColor=#000000;dashed=1;dashPattern=12 12;" vertex="1" parent="1">
          <mxGeometry x="1220" y="550" width="250" height="280" as="geometry" />
        </mxCell>
        <mxCell id="-LrwF1MawvNRdLnmg8Yx-123" value="&lt;span style=&quot;line-height: 18px; font-family: 宋体;&quot;&gt;&lt;font style=&quot;font-size: 24px;&quot;&gt;日志管理模块&lt;/font&gt;&lt;/span&gt;" style="rounded=0;whiteSpace=wrap;html=1;align=center;" vertex="1" parent="1">
          <mxGeometry x="1251" y="870" width="220" height="70" as="geometry" />
        </mxCell>
        <mxCell id="-LrwF1MawvNRdLnmg8Yx-124" value="&lt;span style=&quot;line-height: 18px; font-family: 宋体;&quot;&gt;&lt;font style=&quot;font-size: 24px;&quot;&gt;时间步迭代模块&lt;/font&gt;&lt;/span&gt;" style="rounded=0;whiteSpace=wrap;html=1;textDirection=vertical-lr;align=center;" vertex="1" parent="1">
          <mxGeometry x="1313.75" y="577.49" width="60" height="227.51" as="geometry" />
        </mxCell>
        <mxCell id="-LrwF1MawvNRdLnmg8Yx-125" value="&lt;span style=&quot;line-height: 18px; font-family: 宋体;&quot;&gt;&lt;font style=&quot;font-size: 24px;&quot;&gt;数据输出与传输模块&lt;/font&gt;&lt;/span&gt;" style="rounded=0;whiteSpace=wrap;html=1;textDirection=vertical-lr;align=center;" vertex="1" parent="1">
          <mxGeometry x="1240" y="577.49" width="60" height="227.51" as="geometry" />
        </mxCell>
        <mxCell id="-LrwF1MawvNRdLnmg8Yx-128" value="&lt;span style=&quot;line-height: 18px; font-family: 宋体;&quot;&gt;&lt;font style=&quot;font-size: 24px;&quot;&gt;可视化模块&lt;/font&gt;&lt;/span&gt;" style="rounded=0;whiteSpace=wrap;html=1;textDirection=vertical-lr;align=center;" vertex="1" parent="1">
          <mxGeometry x="1390" y="576.25" width="60" height="227.51" as="geometry" />
        </mxCell>
        <mxCell id="-LrwF1MawvNRdLnmg8Yx-134" value="" style="rounded=0;whiteSpace=wrap;html=1;fillColor=none;strokeColor=#000000;fontColor=#000000;dashed=1;dashPattern=12 12;fontSize=25;" vertex="1" parent="1">
          <mxGeometry x="500" y="390" width="420" height="280" as="geometry" />
        </mxCell>
        <mxCell id="-LrwF1MawvNRdLnmg8Yx-135" value="" style="rounded=0;whiteSpace=wrap;html=1;fillColor=none;strokeColor=#000000;fontColor=#000000;dashed=1;dashPattern=12 12;fontSize=25;" vertex="1" parent="1">
          <mxGeometry x="342.5" y="390" width="157.5" height="280" as="geometry" />
        </mxCell>
        <mxCell id="-LrwF1MawvNRdLnmg8Yx-137" style="edgeStyle=orthogonalEdgeStyle;rounded=0;orthogonalLoop=1;jettySize=auto;html=1;exitX=0.75;exitY=1;exitDx=0;exitDy=0;entryX=0.642;entryY=0.007;entryDx=0;entryDy=0;entryPerimeter=0;curved=1;" edge="1" parent="1" source="-LrwF1MawvNRdLnmg8Yx-134" target="-LrwF1MawvNRdLnmg8Yx-91">
          <mxGeometry relative="1" as="geometry" />
        </mxCell>
        <mxCell id="-LrwF1MawvNRdLnmg8Yx-152" style="edgeStyle=orthogonalEdgeStyle;rounded=0;orthogonalLoop=1;jettySize=auto;html=1;exitX=1;exitY=0.25;exitDx=0;exitDy=0;curved=1;entryX=0.002;entryY=0.527;entryDx=0;entryDy=0;entryPerimeter=0;" edge="1" parent="1" source="-LrwF1MawvNRdLnmg8Yx-114" target="-LrwF1MawvNRdLnmg8Yx-135">
          <mxGeometry relative="1" as="geometry">
            <mxPoint x="340" y="538" as="targetPoint" />
            <Array as="points">
              <mxPoint x="260" y="510" />
              <mxPoint x="343" y="510" />
            </Array>
          </mxGeometry>
        </mxCell>
        <mxCell id="-LrwF1MawvNRdLnmg8Yx-153" style="edgeStyle=orthogonalEdgeStyle;rounded=0;orthogonalLoop=1;jettySize=auto;html=1;exitX=0;exitY=0.5;exitDx=0;exitDy=0;entryX=0.995;entryY=0.772;entryDx=0;entryDy=0;entryPerimeter=0;curved=1;" edge="1" parent="1" source="-LrwF1MawvNRdLnmg8Yx-91" target="-LrwF1MawvNRdLnmg8Yx-114">
          <mxGeometry relative="1" as="geometry">
            <Array as="points">
              <mxPoint x="345" y="850" />
              <mxPoint x="259" y="850" />
            </Array>
          </mxGeometry>
        </mxCell>
        <mxCell id="-LrwF1MawvNRdLnmg8Yx-155" value="" style="endArrow=classic;html=1;rounded=0;entryX=0.009;entryY=0.143;entryDx=0;entryDy=0;entryPerimeter=0;edgeStyle=orthogonalEdgeStyle;curved=1;" edge="1" parent="1">
          <mxGeometry width="50" height="50" relative="1" as="geometry">
            <mxPoint x="1175" y="590" as="sourcePoint" />
            <mxPoint x="1220.25" y="590.04" as="targetPoint" />
            <Array as="points">
              <mxPoint x="1175" y="570" />
              <mxPoint x="1220" y="570" />
            </Array>
          </mxGeometry>
        </mxCell>
        <mxCell id="-LrwF1MawvNRdLnmg8Yx-156" value="" style="endArrow=classic;html=1;rounded=0;entryX=0.009;entryY=0.143;entryDx=0;entryDy=0;entryPerimeter=0;edgeStyle=orthogonalEdgeStyle;curved=1;" edge="1" parent="1">
          <mxGeometry width="50" height="50" relative="1" as="geometry">
            <mxPoint x="1174.75" y="820" as="sourcePoint" />
            <mxPoint x="1220" y="820.04" as="targetPoint" />
            <Array as="points">
              <mxPoint x="1175" y="840" />
              <mxPoint x="1220" y="840" />
            </Array>
          </mxGeometry>
        </mxCell>
        <mxCell id="-LrwF1MawvNRdLnmg8Yx-157" value="" style="endArrow=classic;html=1;rounded=0;exitX=0;exitY=0.32;exitDx=0;exitDy=0;exitPerimeter=0;entryX=0.999;entryY=0.892;entryDx=0;entryDy=0;entryPerimeter=0;edgeStyle=orthogonalEdgeStyle;curved=1;" edge="1" parent="1" source="-LrwF1MawvNRdLnmg8Yx-122" target="-LrwF1MawvNRdLnmg8Yx-80">
          <mxGeometry width="50" height="50" relative="1" as="geometry">
            <mxPoint x="1120" y="720" as="sourcePoint" />
            <mxPoint x="1170" y="670" as="targetPoint" />
            <Array as="points">
              <mxPoint x="1220" y="660" />
              <mxPoint x="1175" y="660" />
            </Array>
          </mxGeometry>
        </mxCell>
        <mxCell id="-LrwF1MawvNRdLnmg8Yx-158" value="" style="endArrow=classic;html=1;rounded=0;exitX=0;exitY=0.32;exitDx=0;exitDy=0;exitPerimeter=0;entryX=0.999;entryY=0.892;entryDx=0;entryDy=0;entryPerimeter=0;edgeStyle=orthogonalEdgeStyle;curved=1;" edge="1" parent="1">
          <mxGeometry width="50" height="50" relative="1" as="geometry">
            <mxPoint x="1220" y="770" as="sourcePoint" />
            <mxPoint x="1175" y="770" as="targetPoint" />
            <Array as="points">
              <mxPoint x="1220" y="750" />
              <mxPoint x="1175" y="750" />
            </Array>
          </mxGeometry>
        </mxCell>
      </root>
    </mxGraphModel>
  </diagram>
</mxfile>
